<svg xmlns="http://www.w3.org/2000/svg" version="1.1" xmlns:xlink="http://www.w3.org/1999/xlink" xmlns:svgjs="http://svgjs.dev/svgjs" width="1000" height="421" viewBox="0 0 1000 421"><g transform="matrix(1,0,0,1,-0.6060606060606233,0.3338310579405004)"><svg viewBox="0 0 396 167" data-background-color="#ffffff" preserveAspectRatio="xMidYMid meet" height="421" width="1000" xmlns="http://www.w3.org/2000/svg" xmlns:xlink="http://www.w3.org/1999/xlink"><g id="tight-bounds" transform="matrix(1,0,0,1,0.2400000000000091,-0.1324222961426642)"><svg viewBox="0 0 395.52 167.26484459228533" height="167.26484459228533" width="395.52"><g><svg viewBox="0 0 395.52 167.26484459228533" height="167.26484459228533" width="395.52"><g transform="matrix(1,0,0,1,0,89.96441415500564)"><svg viewBox="0 0 395.52 77.30043043727969" height="77.30043043727969" width="395.52"><g><svg viewBox="0 0 395.52 77.30043043727969" height="77.30043043727969" width="395.52"><g><svg viewBox="0 0 395.52 41.69215848610288" height="41.69215848610288" width="395.52"><g transform="matrix(1,0,0,1,0,0)"><svg width="395.52" viewBox="4 -34.849998474121094 338.1700134277344 35.64999771118164" height="41.69215848610288" data-palette-color="#454545"><path d="M4 0L4-34.1 15.4-34.1Q20-34.1 22.75-31.3 25.5-28.5 25.5-23.55L25.5-23.55Q25.5-18.65 22.63-15.85 19.75-13.05 15-13.05L15-13.05 7.75-13.05 7.75 0 4 0ZM7.75-16.15L14.9-16.15Q18.25-16.15 20-18.03 21.75-19.9 21.75-23.55L21.75-23.55Q21.75-27.2 20-29.1 18.25-31 14.9-31L14.9-31 7.75-31 7.75-16.15ZM39.85 0L29.5 0 29.5-3.3 32.8-3.3 32.8-30.8 29.5-30.8 29.5-34.1 39.85-34.1 39.85-30.8 36.55-30.8 36.55-3.3 39.85-3.3 39.85 0ZM60 0.8Q55.74 0.8 52.42-1.48 49.09-3.75 47.22-7.8 45.34-11.85 45.34-17L45.34-17Q45.34-22.15 47.22-26.23 49.09-30.3 52.42-32.58 55.74-34.85 60-34.85L60-34.85Q64.25-34.85 67.57-32.58 70.89-30.3 72.77-26.23 74.65-22.15 74.65-16.95L74.65-16.95Q74.65-11.8 72.77-7.78 70.89-3.75 67.57-1.48 64.25 0.8 60 0.8L60 0.8ZM60-2.65Q63.09-2.65 65.57-4.48 68.05-6.3 69.44-9.58 70.84-12.85 70.84-17L70.84-17Q70.84-21.15 69.44-24.45 68.05-27.75 65.57-29.6 63.09-31.45 60-31.45L60-31.45Q56.89-31.45 54.42-29.6 51.95-27.75 50.55-24.45 49.14-21.15 49.14-17L49.14-17Q49.14-12.85 50.55-9.58 51.95-6.3 54.42-4.48 56.89-2.65 60-2.65L60-2.65ZM92.59 0L88.89 0 88.89-31 78.14-31 78.14-34.1 103.34-34.1 103.34-31 92.59-31 92.59 0ZM131.14 0L127.19 0 118.54-15.05 111.79-15.05 111.79 0 108.04 0 108.04-34.1 119.44-34.1Q122.54-34.1 124.89-32.9 127.24-31.7 128.49-29.53 129.74-27.35 129.74-24.55L129.74-24.55Q129.74-21.15 127.69-18.73 125.64-16.3 122.24-15.45L122.24-15.45 131.14 0ZM111.79-31L111.79-18.15 118.94-18.15Q122.24-18.15 124.02-19.9 125.79-21.65 125.79-24.55L125.79-24.55Q125.79-27.45 124.02-29.23 122.24-31 118.94-31L118.94-31 111.79-31ZM174.79-4.2L187.29-34.1 191.49-34.1 191.49 0 187.79 0 187.79-27.25 176.39 0 172.89 0 161.99-27.15 161.99 0 158.24 0 158.24-34.1 162.84-34.1 174.79-4.2ZM208.58 0L198.23 0 198.23-3.3 201.53-3.3 201.53-30.8 198.23-30.8 198.23-34.1 208.58-34.1 208.58-30.8 205.28-30.8 205.28-3.3 208.58-3.3 208.58 0ZM238.58 0L234.33 0 222.63-16.4 219.03-12.15 219.03 0 215.28 0 215.28-34.1 219.03-34.1 219.03-16.85 233.43-34.1 237.58-34.1 224.83-19 238.58 0ZM255.18 0.8Q248.88 0.8 245.73-2.63 242.58-6.05 242.58-12.65L242.58-12.65 242.58-34.1 246.33-34.1 246.33-12.65Q246.33-2.6 255.18-2.6L255.18-2.6Q259.18-2.6 261.5-5.2 263.83-7.8 263.83-12.65L263.83-12.65 263.83-34.1 267.58-34.1 267.58-12.65Q267.58-6.15 264.3-2.68 261.03 0.8 255.18 0.8L255.18 0.8ZM288.23 0.8Q283.93 0.8 280.8-1.33 277.68-3.45 276-7.43 274.33-11.4 274.33-16.95L274.33-16.95Q274.33-22.55 275.95-26.58 277.58-30.6 280.6-32.73 283.63-34.85 287.78-34.85L287.78-34.85Q292.03-34.85 295.05-32.98 298.08-31.1 299.78-27.7L299.78-27.7 296.78-25.95Q295.18-28.9 293.03-30.18 290.88-31.45 287.78-31.45L287.78-31.45Q283.33-31.45 280.8-27.63 278.28-23.8 278.28-17L278.28-17Q278.28-12.55 279.43-9.3 280.58-6.05 282.73-4.33 284.88-2.6 287.73-2.6L287.73-2.6Q291.28-2.6 293.25-4.17 295.23-5.75 296.93-9.1L296.93-9.1 300.08-7.2Q298.28-3.3 295.3-1.25 292.33 0.8 288.23 0.8L288.23 0.8ZM329.07 0L324.82 0 313.12-16.4 309.52-12.15 309.52 0 305.77 0 305.77-34.1 309.52-34.1 309.52-16.85 323.92-34.1 328.07-34.1 315.32-19 329.07 0ZM342.17 0L331.82 0 331.82-3.3 335.12-3.3 335.12-30.8 331.82-30.8 331.82-34.1 342.17-34.1 342.17-30.8 338.87-30.8 338.87-3.3 342.17-3.3 342.17 0Z" opacity="1" transform="matrix(1,0,0,1,0,0)" fill="#454545" class="undefined-text-0" data-fill-palette-color="primary" id="text-0"></path></svg></g></svg></g><g transform="matrix(1,0,0,1,82.41053673960187,51.53467649286811)"><svg viewBox="0 0 230.69892652079625 25.765753944411582" height="25.765753944411582" width="230.69892652079625"><g transform="matrix(1,0,0,1,0,0)"><svg width="230.69892652079625" viewBox="5.349999904632568 -42.29999923706055 483.4599914550781 54" height="25.765753944411582" data-palette-color="#454545"><path d="M28.3-33.55L10.2-33.55 10.2-20.55 25.8-20.55 25.8-16.2 10.2-16.2 10.2 0 5.35 0 5.35-37.9 28.3-37.9 28.3-33.55ZM53.4-27.65L58.1-27.65 58.1 0 53.4 0 53.4-2.95Q49.3 0.6 44.95 0.6L44.95 0.6Q39.85 0.6 37.37-2.1 34.9-4.8 34.9-10.95L34.9-10.95 34.9-27.65 39.6-27.65 39.6-10.95Q39.6-7.05 40.92-5.4 42.25-3.75 45.6-3.75L45.6-3.75Q49.5-3.75 53.4-7.15L53.4-7.15 53.4-27.65ZM74.15 0.65Q70.4 0.65 68.75-0.85 67.09-2.35 67.09-5.9L67.09-5.9 67.09-42.3 71.8-42.3 71.8-7.15Q71.8-5.15 72.42-4.42 73.05-3.7 74.8-3.7L74.8-3.7Q76.2-3.7 77.3-4L77.3-4 77.3 0.3Q75.3 0.65 74.15 0.65L74.15 0.65ZM90.09 0.65Q86.34 0.65 84.69-0.85 83.04-2.35 83.04-5.9L83.04-5.9 83.04-42.3 87.74-42.3 87.74-7.15Q87.74-5.15 88.37-4.42 88.99-3.7 90.74-3.7L90.74-3.7Q92.14-3.7 93.24-4L93.24-4 93.24 0.3Q91.24 0.65 90.09 0.65L90.09 0.65ZM107.39 0.85Q104.34 0.85 101.99 0.35 99.64-0.15 97.09-1.35L97.09-1.35 97.09-6Q101.84-3.35 107.39-3.35L107.39-3.35Q110.19-3.35 111.42-4.48 112.64-5.6 112.64-7.45L112.64-7.45Q112.64-9.25 111.67-10.1 110.69-10.95 108.49-11.55L108.49-11.55 105.24-12.35Q101.74-13.2 99.74-15.05 97.74-16.9 97.74-20.5L97.74-20.5Q97.74-24.25 100.19-26.35 102.64-28.45 107.39-28.45L107.39-28.45Q109.84-28.45 111.94-27.98 114.04-27.5 116.14-26.65L116.14-26.65 116.14-22.25Q114.09-23.2 112.09-23.73 110.09-24.25 107.54-24.25L107.54-24.25Q104.89-24.25 103.72-23.23 102.54-22.2 102.54-20.65L102.54-20.65Q102.54-18.95 103.57-18.07 104.59-17.2 106.54-16.7L106.54-16.7 109.84-15.95Q112.34-15.35 113.97-14.45 115.59-13.55 116.52-11.93 117.44-10.3 117.44-7.6L117.44-7.6Q117.44-3.55 114.72-1.35 111.99 0.85 107.39 0.85L107.39 0.85ZM136.74-22.95L130.34-22.95 130.34-7.15Q130.34-5.15 130.96-4.42 131.59-3.7 133.29-3.7L133.29-3.7Q134.79-3.7 136.49-4.1L136.49-4.1 136.49 0.15Q134.24 0.65 132.49 0.65L132.49 0.65Q128.69 0.65 127.16-0.9 125.64-2.45 125.64-6.1L125.64-6.1 125.64-22.95 122.04-22.95 122.04-27.3 125.64-27.3 125.64-36.8 130.34-36.8 130.34-27.3 136.74-27.3 136.74-22.95ZM151.84-27.65Q156.24-27.65 158.54-26.18 160.84-24.7 161.59-22.23 162.34-19.75 162.34-16L162.34-16 162.34 0 157.64 0 157.64-2.75Q155.74-0.95 153.84-0.15 151.94 0.65 149.74 0.65L149.74 0.65Q147.14 0.65 145.03-0.48 142.94-1.6 141.71-3.73 140.49-5.85 140.49-8.75L140.49-8.75Q140.49-13.25 143.28-15.73 146.09-18.2 150.84-18.2L150.84-18.2Q154.59-18.2 157.59-16.55L157.59-16.55Q157.53-19 157.09-20.45 156.64-21.9 155.24-22.68 153.84-23.45 151.09-23.45L151.09-23.45 147.39-23.45 147.39-27.65 151.84-27.65ZM150.39-3.4Q152.09-3.4 153.96-4.2 155.84-5 157.64-6.6L157.64-6.6 157.64-12.9Q154.84-14.3 151.53-14.3L151.53-14.3Q148.89-14.3 147.09-13.03 145.28-11.75 145.28-8.75L145.28-8.75Q145.28-5.95 146.81-4.67 148.34-3.4 150.39-3.4L150.39-3.4ZM181.78 0.85Q175.33 0.8 171.86-3.15 168.38-7.1 168.38-13.85L168.38-13.85Q168.38-20.6 171.86-24.5 175.33-28.4 181.78-28.45L181.78-28.45Q184.03-28.45 185.66-28.13 187.28-27.8 189.13-27.05L189.13-27.05 189.13-22.5Q187.33-23.35 185.71-23.7 184.08-24.05 182.13-24.05L182.13-24.05Q177.48-24 175.38-21.28 173.28-18.55 173.28-13.9L173.28-13.9Q173.28-9.15 175.38-6.35 177.48-3.55 182.03-3.5L182.03-3.5Q185.58-3.5 189.78-5.65L189.78-5.65 191.28-1.55Q186.73 0.85 181.78 0.85L181.78 0.85ZM215.18 0L205.08-12.75 202.08-9.7 202.08 0 197.38 0 197.38-42.3 202.08-42.3 202.08-15.65 213.38-27.3 219.28-27.3 208.28-16 220.88 0 215.18 0ZM251.03-37.9Q260.38-37.9 265.15-33.08 269.93-28.25 269.93-18.9L269.93-18.9Q269.93-9.5 265.18-4.75 260.43 0 251.03 0L251.03 0 238.43 0 238.43-37.9 251.03-37.9ZM264.93-19.05Q264.93-26.55 261.43-30.1 257.93-33.65 251.03-33.65L251.03-33.65 243.28-33.65 243.28-4.25 251.03-4.25Q257.98-4.25 261.45-7.8 264.93-11.35 264.93-19.05L264.93-19.05ZM280.57-13.45Q280.67-8.85 282.87-6.1 285.07-3.35 289.87-3.35L289.87-3.35Q293.52-3.35 297.87-5.4L297.87-5.4 299.32-1.5Q294.77 0.85 289.47 0.85L289.47 0.85Q285.07 0.85 281.97-1 278.87-2.85 277.27-6.15 275.67-9.45 275.67-13.85L275.67-13.85Q275.67-18.5 277.35-21.78 279.02-25.05 281.87-26.75 284.72-28.45 288.27-28.45L288.27-28.45Q293.72-28.45 296.82-25.05 299.92-21.65 299.92-15.3L299.92-15.3 299.92-13.45 280.57-13.45ZM288.27-24.25Q282.07-24.25 280.87-17.4L280.87-17.4 294.97-17.4Q294.72-20.9 293.07-22.58 291.42-24.25 288.27-24.25L288.27-24.25ZM324.62-27.65L329.52-27.65 319.07 0.45 313.67 0.45 303.12-27.65 308.02-27.65 316.37-4.75 324.62-27.65ZM338.22-13.45Q338.32-8.85 340.52-6.1 342.72-3.35 347.52-3.35L347.52-3.35Q351.17-3.35 355.52-5.4L355.52-5.4 356.97-1.5Q352.42 0.85 347.12 0.85L347.12 0.85Q342.72 0.85 339.62-1 336.52-2.85 334.92-6.15 333.32-9.45 333.32-13.85L333.32-13.85Q333.32-18.5 334.99-21.78 336.67-25.05 339.52-26.75 342.37-28.45 345.92-28.45L345.92-28.45Q351.37-28.45 354.47-25.05 357.57-21.65 357.57-15.3L357.57-15.3 357.57-13.45 338.22-13.45ZM345.92-24.25Q339.72-24.25 338.52-17.4L338.52-17.4 352.62-17.4Q352.37-20.9 350.72-22.58 349.07-24.25 345.92-24.25L345.92-24.25ZM371.32 0.65Q367.57 0.65 365.92-0.85 364.27-2.35 364.27-5.9L364.27-5.9 364.27-42.3 368.97-42.3 368.97-7.15Q368.97-5.15 369.59-4.42 370.22-3.7 371.97-3.7L371.97-3.7Q373.37-3.7 374.47-4L374.47-4 374.47 0.3Q372.47 0.65 371.32 0.65L371.32 0.65ZM392.16 0.85Q387.76 0.85 384.69-1.07 381.61-3 380.06-6.33 378.51-9.65 378.51-13.8L378.51-13.8Q378.51-17.95 380.06-21.28 381.61-24.6 384.69-26.53 387.76-28.45 392.16-28.45L392.16-28.45Q396.56-28.45 399.64-26.53 402.71-24.6 404.24-21.28 405.76-17.95 405.76-13.8L405.76-13.8Q405.76-9.65 404.24-6.33 402.71-3 399.64-1.07 396.56 0.85 392.16 0.85L392.16 0.85ZM392.16-3.4Q396.31-3.4 398.59-6.3 400.86-9.2 400.86-13.8L400.86-13.8Q400.86-18.4 398.59-21.28 396.31-24.15 392.16-24.15L392.16-24.15Q388.01-24.15 385.71-21.28 383.41-18.4 383.41-13.8L383.41-13.8Q383.41-9.2 385.71-6.3 388.01-3.4 392.16-3.4L392.16-3.4ZM425.76-28.45Q431.36-28.45 434.69-24.7 438.01-20.95 438.01-13.8L438.01-13.8Q438.01-6.65 434.69-2.9 431.36 0.85 425.76 0.85L425.76 0.85Q421.71 0.85 417.76-2.5L417.76-2.5 417.76 11.7 413.06 11.7 413.06-27.65 417.76-27.65 417.76-25.05Q421.76-28.45 425.76-28.45L425.76-28.45ZM425.11-3.5Q429.06-3.5 431.11-6.13 433.16-8.75 433.16-13.8L433.16-13.8Q433.16-18.85 431.11-21.45 429.06-24.05 425.11-24.05L425.11-24.05Q421.36-24.05 417.76-20.95L417.76-20.95 417.76-6.6Q421.46-3.5 425.11-3.5L425.11-3.5ZM448.56-13.45Q448.66-8.85 450.86-6.1 453.06-3.35 457.86-3.35L457.86-3.35Q461.51-3.35 465.86-5.4L465.86-5.4 467.31-1.5Q462.76 0.85 457.46 0.85L457.46 0.85Q453.06 0.85 449.96-1 446.86-2.85 445.26-6.15 443.66-9.45 443.66-13.85L443.66-13.85Q443.66-18.5 445.33-21.78 447.01-25.05 449.86-26.75 452.71-28.45 456.26-28.45L456.26-28.45Q461.71-28.45 464.81-25.05 467.91-21.65 467.91-15.3L467.91-15.3 467.91-13.45 448.56-13.45ZM456.26-24.25Q450.06-24.25 448.86-17.4L448.86-17.4 462.96-17.4Q462.71-20.9 461.06-22.58 459.41-24.25 456.26-24.25L456.26-24.25ZM487.66-28.25L488.81-28.25 488.81-23.85 487.66-23.85Q483.36-23.85 479.31-20.4L479.31-20.4 479.31 0 474.61 0 474.61-27.65 479.31-27.65 479.31-24.55Q483.41-28.25 487.66-28.25L487.66-28.25Z" opacity="1" transform="matrix(1,0,0,1,0,0)" fill="#454545" class="undefined-text-1" data-fill-palette-color="secondary" id="text-1"></path></svg></g></svg></g></svg></g></svg></g><g transform="matrix(1,0,0,1,149.6990519258798,0)"><svg viewBox="0 0 96.12189614824041 80.12189614824041" height="80.12189614824041" width="96.12189614824041"><g><svg xmlns="http://www.w3.org/2000/svg" xmlns:xlink="http://www.w3.org/1999/xlink" version="1.1" x="8" y="0" viewBox="5 5 90 90" enable-background="new 0 0 100 100" xml:space="preserve" height="80.12189614824041" width="80.12189614824041" class="icon-icon-0" data-fill-palette-color="accent" id="icon-0"><path d="M50 5C25.1 5 5 25.1 5 50c0 24.8 20.1 45 45 45 24.9 0 45-20.2 45-45C95 25.1 74.9 5 50 5L50 5zM50 77c-14.9 0-27-12.1-27-27 0-14.9 12.1-27 27-27 14.9 0 27 12.1 27 27C77 64.9 64.9 77 50 77L50 77zM40.3 30.7C34 33.9 29.5 40 28.6 47.3h8C36.8 40.7 38.2 35 40.3 30.7L40.3 30.7zM50 70.7c3.1 0 7.3-6.8 8-18H42C42.7 63.9 46.9 70.7 50 70.7L50 70.7zM28.6 52.7c1 7.5 5.7 13.8 12.4 16.9-2.4-4.2-4-10-4.4-16.9H28.6zM59.7 30.7c2.1 4.3 3.5 10 3.8 16.6h7.9C70.5 40 66 33.9 59.7 30.7L59.7 30.7zM50 28.4c-3.2 0-7.5 7.1-8 18.9H58C57.5 35.5 53.2 28.4 50 28.4L50 28.4zM59 69.5c6.6-3.1 11.4-9.3 12.4-16.9h-8C63 59.5 61.5 65.4 59 69.5z" fill="#454545" data-fill-palette-color="accent"></path></svg></g></svg></g><g><rect width="149.6990519258798" height="3.759841878584316" y="75.3620542696561" x="245.8209480741202" fill="#454545" data-fill-palette-color="accent"></rect><rect width="149.6990519258798" height="3.759841878584316" y="75.3620542696561" x="0" fill="#454545" data-fill-palette-color="accent"></rect><rect width="149.6990519258798" height="3.759841878584316" y="67.84237051248746" x="245.8209480741202" fill="#454545" data-fill-palette-color="accent"></rect><rect width="149.6990519258798" height="3.759841878584316" y="67.84237051248746" x="0" fill="#454545" data-fill-palette-color="accent"></rect></g></svg></g><defs></defs></svg><rect width="395.52" height="167.26484459228533" fill="none" stroke="none" visibility="hidden"></rect></g></svg></g></svg>